<?xml version="1.0" encoding="UTF-8" standalone="no"?>
<!-- Created with Inkscape (http://www.inkscape.org/) -->

<svg
   xmlns:dc="http://purl.org/dc/elements/1.1/"
   xmlns:cc="http://creativecommons.org/ns#"
   xmlns:rdf="http://www.w3.org/1999/02/22-rdf-syntax-ns#"
   xmlns:svg="http://www.w3.org/2000/svg"
   xmlns="http://www.w3.org/2000/svg"
   xmlns:sodipodi="http://sodipodi.sourceforge.net/DTD/sodipodi-0.dtd"
   xmlns:inkscape="http://www.inkscape.org/namespaces/inkscape"
   width="6.2470002mm"
   height="7.2329998mm"
   viewBox="0 0 6.2470002 7.2329998"
   version="1.1"
   id="svg4069"
   inkscape:version="0.92.3 (2405546, 2018-03-11)"
   sodipodi:docname="cf-name.svg">
  <defs
     id="defs4063" />
  <sodipodi:namedview
     id="base"
     pagecolor="#ffffff"
     bordercolor="#666666"
     borderopacity="1.0"
     inkscape:pageopacity="0.0"
     inkscape:pageshadow="2"
     inkscape:zoom="4.64"
     inkscape:cx="58.748314"
     inkscape:cy="24.788732"
     inkscape:document-units="mm"
     inkscape:current-layer="layer1"
     showgrid="false"
     inkscape:window-width="1680"
     inkscape:window-height="987"
     inkscape:window-x="-8"
     inkscape:window-y="-8"
     inkscape:window-maximized="1" />
  <metadata
     id="metadata4066">
    <rdf:RDF>
      <cc:Work
         rdf:about="">
        <dc:format>image/svg+xml</dc:format>
        <dc:type
           rdf:resource="http://purl.org/dc/dcmitype/StillImage" />
        <dc:title></dc:title>
      </cc:Work>
    </rdf:RDF>
  </metadata>
  <g
     inkscape:label="Layer 1"
     inkscape:groupmode="layer"
     id="layer1"
     transform="translate(0,-289.767)">
    <g
       id="g2189"
       transform="matrix(0.35277777,0,0,-0.35277777,4.6064093,291.42646)">
      <path
         d="m 0,0 c 0,-2.321 -1.882,-4.203 -4.203,-4.203 -2.322,0 -4.203,1.882 -4.203,4.203 0,2.321 1.881,4.203 4.203,4.203 C -1.882,4.203 0,2.321 0,0 Z m 2.143,-15.299 c 1.329,0 2.314,1.283 1.922,2.552 -1.088,3.532 -4.379,6.099 -8.268,6.099 -3.89,0 -7.18,-2.567 -8.269,-6.099 -0.391,-1.269 0.594,-2.552 1.922,-2.552 z"
         style="fill:none;stroke:#999999;stroke-width:1;stroke-linecap:butt;stroke-linejoin:miter;stroke-miterlimit:10;stroke-dasharray:none;stroke-opacity:1"
         id="path2191"
         inkscape:connector-curvature="0" />
    </g>
  </g>
</svg>
