<?xml version="1.0" encoding="UTF-8" standalone="no"?>
<!-- Created with Inkscape (http://www.inkscape.org/) -->

<svg
   xmlns:dc="http://purl.org/dc/elements/1.1/"
   xmlns:cc="http://creativecommons.org/ns#"
   xmlns:rdf="http://www.w3.org/1999/02/22-rdf-syntax-ns#"
   xmlns:svg="http://www.w3.org/2000/svg"
   xmlns="http://www.w3.org/2000/svg"
   xmlns:sodipodi="http://sodipodi.sourceforge.net/DTD/sodipodi-0.dtd"
   xmlns:inkscape="http://www.inkscape.org/namespaces/inkscape"
   width="4.4060001mm"
   height="7.2329998mm"
   viewBox="0 0 4.4060001 7.2329998"
   version="1.1"
   id="svg4069"
   inkscape:version="0.92.3 (2405546, 2018-03-11)"
   sodipodi:docname="cf-phone.svg">
  <defs
     id="defs4063" />
  <sodipodi:namedview
     id="base"
     pagecolor="#ffffff"
     bordercolor="#666666"
     borderopacity="1.0"
     inkscape:pageopacity="0.0"
     inkscape:pageshadow="2"
     inkscape:zoom="4.64"
     inkscape:cx="58.748314"
     inkscape:cy="24.788732"
     inkscape:document-units="mm"
     inkscape:current-layer="layer1"
     showgrid="false"
     inkscape:window-width="1680"
     inkscape:window-height="987"
     inkscape:window-x="-8"
     inkscape:window-y="-8"
     inkscape:window-maximized="1" />
  <metadata
     id="metadata4066">
    <rdf:RDF>
      <cc:Work
         rdf:about="">
        <dc:format>image/svg+xml</dc:format>
        <dc:type
           rdf:resource="http://purl.org/dc/dcmitype/StillImage" />
        <dc:title></dc:title>
      </cc:Work>
    </rdf:RDF>
  </metadata>
  <g
     inkscape:label="Layer 1"
     inkscape:groupmode="layer"
     id="layer1"
     transform="translate(0,-289.767)">
    <g
       id="g2193"
       transform="matrix(0.35277777,0,0,-0.35277777,3.490736,296.82361)">
      <path
         d="m 0,0 h -7.301 c -1.157,0 -2.094,0.938 -2.094,2.094 v 15.144 c 0,1.156 0.937,2.094 2.094,2.094 H 0 c 1.157,0 2.094,-0.938 2.094,-2.094 V 2.094 C 2.094,0.938 1.157,0 0,0 Z"
         style="fill:none;stroke:#999999;stroke-width:1;stroke-linecap:butt;stroke-linejoin:miter;stroke-miterlimit:10;stroke-dasharray:none;stroke-opacity:1"
         id="path2195"
         inkscape:connector-curvature="0" />
    </g>
    <g
       id="g2197"
       transform="matrix(0.35277777,0,0,-0.35277777,2.56734,295.56253)">
      <path
         d="m 0,0 c 0,-0.571 -0.463,-1.033 -1.033,-1.033 -0.571,0 -1.033,0.462 -1.033,1.033 0,0.571 0.462,1.033 1.033,1.033 C -0.463,1.033 0,0.571 0,0"
         style="fill:#b51f8f;fill-opacity:1;fill-rule:nonzero;stroke:none"
         id="path2199"
         inkscape:connector-curvature="0" />
    </g>
    <g
       id="g2201"
       transform="matrix(0.35277777,0,0,-0.35277777,2.56734,295.56253)">
      <path
         d="m 0,0 c 0,-0.571 -0.463,-1.033 -1.033,-1.033 -0.571,0 -1.033,0.462 -1.033,1.033 0,0.571 0.462,1.033 1.033,1.033 C -0.463,1.033 0,0.571 0,0 Z"
         style="fill:none;stroke:#999999;stroke-width:1;stroke-linecap:butt;stroke-linejoin:miter;stroke-miterlimit:10;stroke-dasharray:none;stroke-opacity:1"
         id="path2203"
         inkscape:connector-curvature="0" />
    </g>
  </g>
</svg>
