<?xml version="1.0" encoding="utf-8"?>
<!-- Generator: Adobe Illustrator 23.0.1, SVG Export Plug-In . SVG Version: 6.00 Build 0)  -->
<svg version="1.1"
	 id="svg3551" xmlns:cc="http://creativecommons.org/ns#" xmlns:dc="http://purl.org/dc/elements/1.1/" xmlns:rdf="http://www.w3.org/1999/02/22-rdf-syntax-ns#" xmlns:svg="http://www.w3.org/2000/svg"
	 xmlns="http://www.w3.org/2000/svg" xmlns:xlink="http://www.w3.org/1999/xlink" x="0px" y="0px" viewBox="0 0 201.3 140"
	 style="enable-background:new 0 0 201.3 140;" xml:space="preserve">
<style type="text/css">
	.st0{fill:#F68B6B;}
	.st1{fill:none;stroke:#000000;stroke-width:1.32;stroke-linecap:round;stroke-linejoin:round;stroke-miterlimit:10;}
</style>
<g id="layer1" transform="translate(0,-259.95832)">
	<g id="g1846" transform="matrix(0.35277777,0,0,-0.35277777,40.353285,271.90332)">
		<path id="path1848" class="st0" d="M317.9-94.1c3.1,4.7,1.8,10.9-2.9,14c-4.7,3.1-10.9,1.8-14-2.9l-24.1-36.8
			c-3.1-4.7-1.8-10.9,2.9-14c1.7-1.1,3.6-1.7,5.5-1.7c3.3,0,6.5,1.6,8.5,4.6L317.9-94.1z"/>
	</g>
	<g id="g1850" transform="matrix(0.35277777,0,0,-0.35277777,42.504175,290.36111)">
		<path id="path1852" class="st0" d="M334.9-239.5c3.1,4.7,1.8,10.9-2.9,14c-4.7,3.1-10.9,1.8-14-2.9l-24.1-36.8
			c-3.1-4.7-1.8-10.9,2.9-14c1.7-1.1,3.6-1.7,5.5-1.7c3.3,0,6.5,1.6,8.5,4.6L334.9-239.5z"/>
	</g>
	<g id="g1854" transform="matrix(0.35277777,0,0,-0.35277777,21.493785,266.65385)">
		<path id="path1856" class="st0" d="M169.3-52.8c3.1,4.7,1.8,10.9-2.9,14c-4.7,3.1-10.9,1.8-14-2.9l-24.1-36.8
			c-3.1-4.7-1.8-10.9,2.9-14c1.7-1.1,3.6-1.7,5.5-1.7c3.3,0,6.5,1.6,8.5,4.6L169.3-52.8z"/>
	</g>
	<g id="g1858" transform="matrix(0.35277777,0,0,-0.35277777,13.563653,283.6189)">
		<path id="path1860" class="st0" d="M106.9-186.4c3.1,4.7,1.8,10.9-2.9,14c-4.7,3.1-10.9,1.8-14-2.9l-24.1-36.8
			c-3.1-4.7-1.8-10.9,2.9-14c1.7-1.1,3.6-1.7,5.5-1.7c3.3,0,6.5,1.6,8.5,4.6L106.9-186.4z"/>
	</g>
	<g id="g1862" transform="matrix(0.35277777,0,0,-0.35277777,32.808744,276.65471)">
		<path id="path1864" class="st1" d="M258.5-131.6l-28.2-28.2c-6.4-6.4-16.8-6.4-23.1,0l0,0c-6.4,6.4-6.4,16.8,0,23.1l28.2,28.2
			c6.4,6.4,16.8,6.4,23.1,0l0,0C264.9-114.8,264.9-125.2,258.5-131.6z M277.1-159.3l-28.2-28.2c-6.4-6.4-16.8-6.4-23.1,0
			c-6.4,6.4-6.4,16.8,0,23.1l28.2,28.2c6.4,6.4,16.8,6.4,23.1,0C283.4-142.5,283.4-152.9,277.1-159.3z M294.7-187.9l-28.2-28.2
			c-6.4-6.4-16.8-6.4-23.1,0c-6.4,6.4-6.4,16.8,0,23.1l28.2,28.2c6.4,6.4,16.8,6.4,23.1,0C301.1-171.2,301.1-181.5,294.7-187.9z
			 M311.5-217.4l-28.2-28.2c-6.4-6.4-16.8-6.4-23.1,0l0,0c-6.4,6.4-6.4,16.8,0,23.1l28.2,28.2c6.4,6.4,16.8,6.4,23.1,0l0,0
			C317.9-200.6,317.9-211,311.5-217.4z M219.3-124.4L197.8-146c-6.3-6.3-16.7-5.3-21.7,2l-14.5,21.2l-19.9,19.9
			c-11.3,11.3-29.7,11.3-41,0c-2.3-2.3-2.3-6.1,0-8.5l27.5-27.5c3.7-3.7,6.1-8.5,6.9-13.7l5.9-38.6c1.7-11.1-2-22.3-9.9-30.2
			l-37.9-37.9l76.1-76.1 M201-17.5l8.2-16.7c0.8-1.6,2.3-2.6,4-2.9l18.4-2.7c4.3-0.6,6.1-6,2.9-9l-13.3-13c-1.3-1.2-1.8-3-1.5-4.7
			l3.1-18.4c0.7-4.3-3.8-7.6-7.7-5.6l-16.5,8.7c-1.5,0.8-3.4,0.8-4.9,0l-16.5-8.7c-3.9-2-8.4,1.3-7.7,5.6l3.1,18.4
			c0.3,1.7-0.3,3.5-1.5,4.7l-13.3,13c-3.1,3.1-1.4,8.4,2.9,9l18.4,2.7c1.7,0.3,3.2,1.3,4,2.9l8.2,16.7C193.4-13.6,199-13.6,201-17.5
			z M295.7-233.2L181.9-347"/>
	</g>
</g>
</svg>
