<?xml version="1.0" encoding="utf-8"?>
<!-- Generator: Adobe Illustrator 23.0.1, SVG Export Plug-In . SVG Version: 6.00 Build 0)  -->
<svg version="1.1"
	 id="svg3551" xmlns:cc="http://creativecommons.org/ns#" xmlns:dc="http://purl.org/dc/elements/1.1/" xmlns:rdf="http://www.w3.org/1999/02/22-rdf-syntax-ns#" xmlns:svg="http://www.w3.org/2000/svg"
	 xmlns="http://www.w3.org/2000/svg" xmlns:xlink="http://www.w3.org/1999/xlink" x="0px" y="0px" viewBox="0 0 201.3 140"
	 style="enable-background:new 0 0 201.3 140;" xml:space="preserve">
<style type="text/css">
	.st0{fill:#F68B6B;}
	.st1{fill:none;stroke:#000000;stroke-width:1.32;stroke-linecap:round;stroke-linejoin:round;stroke-miterlimit:10;}
</style>
<g id="layer1" transform="translate(0,-259.95832)">
	<g id="g1806" transform="matrix(0.35277777,0,0,-0.35277777,53.107342,273.60036)">
		<path id="path1808" class="st0" d="M418.4-107.5c3.1,4.7,1.8,10.9-2.9,14s-10.9,1.8-14-2.9l-24.1-36.8c-3.1-4.7-1.8-10.9,2.9-14
			c1.7-1.1,3.6-1.7,5.5-1.7c3.3,0,6.5,1.6,8.5,4.6L418.4-107.5z"/>
	</g>
	<g id="g1810" transform="matrix(0.35277777,0,0,-0.35277777,26.360721,268.03024)">
		<path id="path1812" class="st0" d="M207.7-63.6c3.1,4.7,1.8,10.9-2.9,14c-4.7,3.1-10.9,1.8-14-2.9l-24.1-36.9
			c-3.1-4.7-1.8-10.9,2.9-14c1.7-1.1,3.6-1.7,5.5-1.7c3.3,0,6.5,1.6,8.5,4.6L207.7-63.6z"/>
	</g>
	<g id="g1814" transform="matrix(0.35277777,0,0,-0.35277777,28.43135,292.93459)">
		<path id="path1816" class="st0" d="M224-259.8c3.1,4.7,1.8,10.9-2.9,14c-4.7,3.1-10.9,1.8-14-2.9L183-285.6
			c-3.1-4.7-1.8-10.9,2.9-14c1.7-1.1,3.6-1.7,5.5-1.7c3.3,0,6.5,1.6,8.5,4.6L224-259.8z"/>
	</g>
	<g id="g1818" transform="matrix(0.35277777,0,0,-0.35277777,3.9867102,280.80112)">
		<path id="path1820" class="st0" d="M31.4-164.2c3.1,4.7,1.8,10.9-2.9,14c-4.7,3.1-10.9,1.8-14-2.9L-9.6-190
			c-3.1-4.7-1.8-10.9,2.9-14c1.7-1.1,3.6-1.7,5.5-1.7c3.3,0,6.5,1.6,8.5,4.6L31.4-164.2z"/>
	</g>
	<g id="g1822" transform="matrix(0.35277777,0,0,-0.35277777,11.983051,287.11316)">
		<path id="path1824" class="st1" d="M94.4-214c16.1,16.1,16.1,42.2,0,58.3l9.5,9.5l25.1-25.1c11-11,29-11,40,0l2.6,2.6
			c2.6,2.6,2.6,6.8,0,9.4l-54,54c-8.1,8.1-21.4,8.1-29.5,0l-40.6-40.6c-12.1-12.1-19.7-28-21.5-45l-1.8-16.7
			c-0.6-5.8-3.2-11.3-7.4-15.4l-24-24l55.3-55.3 M60.4-314.4l27.1,27.1c2.7,2.7,6.4,4.4,10.2,4.7l13.8,1
			c18.8,1.4,36.6,9.5,49.9,22.9l131.1,131.1c7.4,7.4,7.4,19.5,0,26.9c-8,8-20.9,8-28.9,0l-84.5-84.5 M159.8-147.4l23.8,23.8
			c7.9,7.9,20.6,7.9,28.5,0c7.9-7.9,7.9-20.6,0-28.5l-35.1-35.1c-7.9-7.9-20.6-7.9-28.5,0c-2.4,2.4-4.1,5.3-5,8.4 M131.3-119
			l29.3,29.3c7.9,7.9,20.6,7.9,28.5,0s7.9-20.6,0-28.5l-29.3-29.3 M86.7-106.6l37,37c7.9,7.9,20.6,7.9,28.5,0l0,0
			c7.9-7.9,7.9-20.6,0-28.5L131.3-119 M246.4-117.8c-7.7-7.7-7.7-20.2,0-27.9c7.7-7.7,20.2-7.7,27.9,0l11.7,11.7 M233.9-130.3
			l-2.8,2.8c-7.4,7.4-7.4,19.5,0,26.9c8,8,20.9,8,28.9,0 M472.7-305.2l55.3,55.3l-24,24c-4.1,4.1-6.7,9.6-7.4,15.4l-1.8,16.7
			c-1.8,17-9.4,32.9-21.5,45L422.6-98l-29.1,29.1c-7.9,7.9-20.6,7.9-28.5,0c-7.9-7.9-7.9-20.6,0-28.5l32.7-32.7 M287-133.3
			l51.4-51.4 M460.5-317.4l-27.1,27.1c-2.7,2.7-6.4,4.4-10.2,4.7l-13.8,1c-18.8,1.4-36.6,9.5-49.9,22.9l-87.2,87.2 M338.4-184.7
			l-14.8,14.8c-7.9,7.9-7.9,20.6,0,28.5s20.6,7.9,28.5,0 M367.8-157.1l-23.9,23.9c-7.9,7.9-7.9,20.6,0,28.5s20.6,7.9,28.5,0"/>
	</g>
</g>
</svg>
