<?xml version="1.0" encoding="utf-8"?>
<!-- Generator: Adobe Illustrator 23.0.1, SVG Export Plug-In . SVG Version: 6.00 Build 0)  -->
<svg version="1.1"
	 id="svg3551" xmlns:cc="http://creativecommons.org/ns#" xmlns:dc="http://purl.org/dc/elements/1.1/" xmlns:rdf="http://www.w3.org/1999/02/22-rdf-syntax-ns#" xmlns:svg="http://www.w3.org/2000/svg"
	 xmlns="http://www.w3.org/2000/svg" xmlns:xlink="http://www.w3.org/1999/xlink" x="0px" y="0px" viewBox="0 0 201.3 140"
	 style="enable-background:new 0 0 201.3 140;" xml:space="preserve">
<style type="text/css">
	.st0{fill:#F68B6B;}
	.st1{fill:none;stroke:#000000;stroke-width:1.32;stroke-linecap:round;stroke-linejoin:round;stroke-miterlimit:10;}
</style>
<g id="layer1" transform="translate(0,-259.95832)">
	<g id="g1826" transform="matrix(0.35277777,0,0,-0.35277777,37.955325,264.24417)">
		<path id="path1828" class="st0" d="M299-33.8c3.1,4.7,1.8,10.9-2.9,14c-4.7,3.1-10.9,1.8-14-2.9L258-59.5
			c-3.1-4.7-1.8-10.9,2.9-14c1.7-1.1,3.6-1.7,5.5-1.7c3.3,0,6.5,1.6,8.5,4.6L299-33.8z"/>
	</g>
	<g id="g1830" transform="matrix(0.35277777,0,0,-0.35277777,42.096584,284.17492)">
		<path id="path1832" class="st0" d="M331.7-190.8c3.1,4.7,1.8,10.9-2.9,14c-4.7,3.1-10.9,1.8-14-2.9l-24.1-36.8
			c-3.1-4.7-1.8-10.9,2.9-14c1.7-1.1,3.6-1.7,5.5-1.7c3.3,0,6.5,1.6,8.5,4.6L331.7-190.8z"/>
	</g>
	<g id="g1834" transform="matrix(0.35277777,0,0,-0.35277777,17.419814,292.81678)">
		<path id="path1836" class="st0" d="M137.3-258.9c3.1,4.7,1.8,10.9-2.9,14c-4.7,3.1-10.9,1.8-14-2.9l-24.1-36.8
			c-3.1-4.7-1.8-10.9,2.9-14c1.7-1.1,3.6-1.7,5.5-1.7c3.3,0,6.5,1.6,8.5,4.6L137.3-258.9z"/>
	</g>
	<g id="g1838" transform="matrix(0.35277777,0,0,-0.35277777,15.349185,270.86324)">
		<path id="path1840" class="st0" d="M120.9-85.9c3.1,4.7,1.8,10.9-2.9,14c-4.7,3.1-10.9,1.8-14-2.9l-24.1-36.8
			c-3.1-4.7-1.8-10.9,2.9-14c1.7-1.1,3.6-1.7,5.5-1.7c3.3,0,6.5,1.6,8.5,4.6L120.9-85.9z"/>
	</g>
	<g id="g1842" transform="matrix(0.35277777,0,0,-0.35277777,31.01234,272.2486)">
		<path id="path1844" class="st1" d="M244.3-96.8C250-85.1,262.1-77,276-77v-119.4 M204.5-152.6l-39,39c-13.7,13.7-13.7,36,0,49.7
			l95-95c9.9-9.9,15.5-23.4,15.5-37.4v-114.8v-48.4 M211-109.4l-1.6,6.3c-4.8,18.8,6.6,38,25.4,42.8l25-97.8 M257-359.5h-70.7v50.9
			c-47.1,0-85.3,38.2-85.3,85.3v26.7c0,3.7,3,6.7,6.7,6.7c19,0,34.4-15.4,34.4-34.4c0-16,13-29,29-29 M234-156.9l-66.2,9.7
			c-4.2,0.6-8.6-0.3-12.2-2.5L115.2-175c-2.1-1.3-2.7-4.1-1.4-6.2l2.1-3.3c8.5-13.6,26.4-17.8,40.2-9.5l1.4,0.9
			c19.5,11.8,45.7-0.1,47.7-22.8c0.1-1,0.1-2.1,0.1-3.1c0-18.9-15.3-34.2-34.2-34.2"/>
	</g>
</g>
</svg>
